<svg xmlns:xlink="http://www.w3.org/1999/xlink" height="512pt" viewBox="0 0 512 512" width="512pt"
    xmlns="http://www.w3.org/2000/svg">
    <linearGradient gradientUnits="userSpaceOnUse" id="a" x1="0" x2="512" y1="256" y2="256">
        <stop offset="0" stop-color="#ff9e40" />
        <stop offset="1" stop-color="#c43c00" />
    </linearGradient>
    <path
        d="m512 256c0 141.386719-114.613281 256-256 256s-256-114.613281-256-256 114.613281-256 256-256 256 114.613281 256 256zm0 0"
        fill="url(#a)" />
    <path
        d="m203.71875 89.359375v31.121094c0 5.8125 1.578125 11.53125 4.460938 16.527343-9.289063 9.84375-13.753907 22.59375-13.402344 35.238282h-128.34375v30h125.710937l-93.265625 93.265625 21.210938 21.214843 93.265625-93.265624v131.492187h30v-134.753906c.246093.003906.496093.015625.742187.015625 10.449219 0 20.894532-3.296875 29.640625-9.871094 2.101563 5.617188 3.230469 11.601562 3.230469 17.648438v194.648437h120.597656v-333.28125zm26.675781 95.203125c-6.945312-6.945312-7.488281-17.894531-1.652343-25.484375l27.246093 27.066406c-7.597656 5.914063-18.613281 5.398438-25.59375-1.582031zm76.574219 208.078125v-164.644531c0-21.289063-8.664062-42.101563-23.765625-57.101563l-48.597656-48.277343c-.566407-.558594-.890625-1.339844-.890625-2.136719v-1.121094h133.851562v21.402344h-42.832031v30h42.832031v221.878906zm0 0"
        fill="#fff" />
</svg>